<?xml version="1.0" encoding="UTF-8" standalone="no"?>
<!-- Created with Inkscape (http://www.inkscape.org/) -->

<svg
   width="86.066605mm"
   height="86.636932mm"
   viewBox="0 0 86.066605 86.636932"
   version="1.1"
   id="svg1"
   xml:space="preserve"
   xmlns="http://www.w3.org/2000/svg"
   xmlns:svg="http://www.w3.org/2000/svg"><defs
     id="defs1" /><g
     id="layer1"
     transform="translate(52.515755,-361.28277)"><g
       id="g195"><g
         id="g194"
         transform="translate(-165.34828,47.152553)"><ellipse
           style="fill:#eeff38;fill-opacity:1;stroke:none;stroke-width:1.03678"
           id="ellipse182"
           cx="155.86583"
           cy="357.44864"
           rx="43.033302"
           ry="43.318459" /><g
           id="g186"
           transform="matrix(1.5144727,0,0,1.5144727,-3.6308336,-18.714137)"><path
             d="m 97.992228,245.57376 c -2.46346,0 -3.70698,0.80938 -4.584802,2.03744 h -0.170753 l 1.641815,-10.18111 -5.26676,-2.91841 -0.08204,24.83413 h 3.706984 v -6.62812 c 0,-1.86602 0.463565,-3.92846 3.681986,-3.92846 3.536262,0 3.317002,2.60254 3.317002,3.68271 v 6.87387 h 3.68124 v -6.87387 c 0,-2.01317 -0.14628,-6.89818 -5.925442,-6.89818 z"
             style="fill:#092332;stroke-width:0.735804"
             id="path183" /><path
             d="m 117.80497,242.17853 v 3.78579 c 0,0 1.55402,-0.36776 2.73794,-1.51408 1.18538,-1.14691 1.06985,-2.27171 1.06985,-2.27171 h -3.80704 z"
             fill="#092332"
             id="path184"
             style="stroke-width:0.653837" /><path
             d="m 123.06931,246.13717 -5.60162,0.016 -3.78385,3.80351 1.91816,-12.35638 -5.30158,-3.13771 -0.0843,24.91917 h 3.6827 l -0.0431,-5.36925 2.79871,-2.28389 2.84254,7.65478 5.52211,0.0222 -6.71125,-9.18374 z"
             fill="#092332"
             id="path185"
             style="fill:#092332;fill-opacity:1;stroke-width:0.735804" /><path
             d="m 105.12479,255.61569 v 3.78579 c 0,0 1.55402,-0.36776 2.73795,-1.51408 1.18537,-1.14691 1.06985,-2.27171 1.06985,-2.27171 h -3.80705 z"
             fill="#092332"
             id="path186"
             style="stroke-width:0.653837" /></g></g></g></g></svg>
