<?xml version="1.0" encoding="UTF-8" standalone="no"?>
<!-- Created with Inkscape (http://www.inkscape.org/) -->

<svg
   width="110.10155mm"
   height="53.381725mm"
   viewBox="0 0 110.10155 53.381725"
   version="1.1"
   id="svg1"
   xml:space="preserve"
   xmlns="http://www.w3.org/2000/svg"
   xmlns:svg="http://www.w3.org/2000/svg"><defs
     id="defs1" /><g
     id="layer1"
     transform="translate(237.60888,-392.74662)"><g
       id="g196"
       transform="translate(-327.13857,226.38938)"><ellipse
         style="fill:#eeff38;fill-opacity:1;stroke:none;stroke-width:0.638819"
         id="circle169"
         cx="142.08264"
         cy="193.04808"
         rx="26.515148"
         ry="26.690849" /><g
         id="g168"
         transform="translate(-5.9737619,-24.773542)"><path
           d="m 103.96599,214.12366 c -2.46346,0 -3.70698,0.80938 -4.584802,2.03744 h -0.170753 l 1.641815,-10.18111 -5.26676,-2.91841 -0.08204,24.83413 h 3.706984 v -6.62812 c 0,-1.86602 0.463565,-3.92846 3.681986,-3.92846 3.53626,0 3.317,2.60254 3.317,3.68271 v 6.87387 h 3.68124 v -6.87387 c 0,-2.01317 -0.14628,-6.89818 -5.92544,-6.89818 z"
           style="fill:#092332;stroke-width:0.735804"
           id="path145" /><path
           d="m 123.77873,210.72843 v 3.78579 c 0,0 1.55402,-0.36776 2.73794,-1.51408 1.18538,-1.14691 1.06985,-2.27171 1.06985,-2.27171 h -3.80704 z"
           fill="#092332"
           id="path146"
           style="stroke-width:0.653837" /><path
           d="m 129.04307,214.68707 -5.60162,0.016 -3.78385,3.80351 1.91816,-12.35638 -5.30158,-3.13771 -0.0843,24.91917 h 3.6827 l -0.0431,-5.36925 2.79871,-2.28389 2.84254,7.65478 5.52211,0.0222 -6.71125,-9.18374 z"
           fill="#092332"
           id="path152"
           style="fill:#092332;fill-opacity:1;stroke-width:0.735804" /><path
           d="m 111.09855,224.16559 v 3.78579 c 0,0 1.55402,-0.36776 2.73795,-1.51408 1.18537,-1.14691 1.06985,-2.27171 1.06985,-2.27171 h -3.80705 z"
           fill="#092332"
           id="path153"
           style="stroke-width:0.653837" /><g
           id="g163"
           transform="translate(0.3140397,-46.948935)"><path
             d="m 139.98409,263.42068 c -0.92713,-1.22734 -2.46349,-2.03819 -4.99981,-2.03819 -5.77902,0 -6.38901,4.88576 -6.38901,6.89893 0,1.84096 0.63427,6.87387 6.36473,6.87387 2.58488,0 4.14552,-0.71224 5.07265,-1.91455 h 0.12208 v 1.91455 h 3.70624 v -13.77205 h -3.70699 v 2.03744 z m -3.92626,8.54269 c -3.53629,0 -3.92627,-2.7004 -3.92627,-3.68195 0,-1.08017 0.3657,-3.68271 3.92627,-3.68271 3.19411,0 3.85268,1.81744 3.85268,3.68271 0,2.08672 -0.65857,3.6827 -3.85268,3.6827 z"
             style="fill:#092332;stroke-width:0.735804"
             id="path156" /><path
             d="m 152.92312,261.38188 c -2.46349,0 -3.70698,0.80938 -4.5848,2.03744 h -0.17076 v -2.0382 h -3.70698 v 13.7728 h 3.70698 v -6.62811 c 0,-1.86602 0.46354,-3.92846 3.68196,-3.92846 3.53628,0 3.317,2.60254 3.317,3.6827 v 6.87387 h 3.68123 v -6.87387 c 0,-2.01316 -0.14628,-6.89817 -5.92544,-6.89817 z"
             style="fill:#092332;stroke-width:0.735804"
             id="path157" /><path
             d="m 186.41719,263.3783 c -0.92713,-1.22734 -2.46349,-2.03819 -4.99982,-2.03819 -5.77902,0 -6.38897,4.88576 -6.38897,6.89892 0,1.84097 0.63426,6.87387 6.36469,6.87387 2.58488,0 4.14552,-0.71224 5.07265,-1.91454 h 0.12209 v 1.91454 h 3.70623 v -13.77204 h -3.70698 v 2.03744 z m -3.92627,8.54269 c -3.53629,0 -3.92627,-2.7004 -3.92627,-3.68196 0,-1.08016 0.36571,-3.6827 3.92627,-3.6827 3.19414,0 3.85268,1.81743 3.85268,3.6827 0,2.08672 -0.65854,3.68271 -3.85268,3.68271 z"
             style="fill:#092332;stroke-width:0.735804"
             id="path158" /><path
             d="m 199.36631,261.37893 c -2.46346,0 -3.70698,0.80938 -4.58481,2.03744 h -0.17075 v -2.03819 h -3.70698 v 13.7728 h 3.70698 v -6.62812 c 0,-1.86602 0.46357,-3.92846 3.68198,-3.92846 3.53626,0 3.31701,2.60254 3.31701,3.68271 v 6.87387 h 3.68123 v -6.87387 c 0,-2.01317 -0.14628,-6.89818 -5.92544,-6.89818 z"
             style="fill:#092332;stroke-width:0.735804"
             id="path159" /><path
             d="m 163.23661,263.42627 c 0.92713,-1.22734 2.46349,-2.03819 4.99982,-2.03819 5.77902,0 6.389,4.88576 6.389,6.89893 0,1.84096 -0.63429,6.87387 -6.36473,6.87387 -2.58488,0 -4.14552,-0.71224 -5.07264,-1.91455 h -0.12209 v 1.91455 h -3.70623 l 0.14961,-20.8023 3.5574,7.03025 v 2.03744 z m 3.92627,8.54269 c 3.53628,0 3.92626,-2.7004 3.92626,-3.68195 0,-1.08017 -0.3657,-3.68271 -3.92626,-3.68271 -3.19412,0 -3.85268,1.81744 -3.85268,3.68271 0,2.08672 0.65856,3.6827 3.85268,3.6827 z"
             style="fill:#092332;stroke-width:0.735804"
             id="path160" /></g></g></g></g></svg>
